<svg id="Layer_1" data-name="Layer 1" xmlns="http://www.w3.org/2000/svg" viewBox="0 0 39 55.75"><defs><style>.cls-1{fill:#333;}.cls-2{fill:#fff;}.cls-3{fill:#1f4386;}</style></defs><path class="cls-1" d="M39.74,10.88a23.29,23.29,0,0,1,9.16,1.55,11,11,0,0,1,5.31,4.45,13.07,13.07,0,0,1,1.73,6.82,13.47,13.47,0,0,1-1.55,6.68,11.63,11.63,0,0,1-3.93,4.25,10.49,10.49,0,0,1-4.82,1.67,13.62,13.62,0,0,1,5.26,1.31,10.87,10.87,0,0,1,4.53,4,13,13,0,0,1,1.84,7.33,16.59,16.59,0,0,1-1.75,7.72A12.33,12.33,0,0,1,49.93,62q-3.85,2-10.3,2H18.75V10.88ZM29.44,35.47l-3.71-3.13H36.32q4.24,0,6.37-1.82a6.14,6.14,0,0,0,2.12-4.91,6.09,6.09,0,0,0-.9-3.44,5.27,5.27,0,0,0-2.66-2,12.8,12.8,0,0,0-4.36-.65H24.4l5-5.32Zm8,19.84q4.11,0,6.24-1.89a6.49,6.49,0,0,0,2.15-5.13,7.63,7.63,0,0,0-.63-3.21,6.17,6.17,0,0,0-1.79-2.28,8.14,8.14,0,0,0-2.79-1.41A12.77,12.77,0,0,0,37,40.91H25.73l3.71-3.1V60.64l-5-5.33Z" transform="translate(-18.26 -10.78)"/><rect class="cls-2" y="31.13" width="11.38" height="24.62"/><rect class="cls-3" x="0.37" width="10.8" height="32.74"/><polygon class="cls-3" points="5.88 30.62 0.46 36.44 0.36 31.05 0.4 25.16 5.88 30.62"/><polygon class="cls-3" points="5.8 30.5 11.18 24.66 11.15 30.28 11.22 36.44 5.8 30.5"/><polygon class="cls-3" points="5.97 32.74 0.55 38.56 0.45 33.16 0.48 27.27 5.97 32.74"/><polygon class="cls-3" points="5.89 32.62 11.27 26.78 11.24 32.4 11.3 38.56 5.89 32.62"/></svg>